<?xml version="1.0" encoding="UTF-8"?>
<!-- Created with Inkscape (http://www.inkscape.org/) -->
<svg width="1880" height="468.56" version="1.1" viewBox="0 0 1880 468.56" xml:space="preserve" xmlns="http://www.w3.org/2000/svg"><defs><clipPath id="clipPath23"><path d="m0 500h1500v-500h-1500z"/></clipPath></defs><g transform="matrix(1.3333 0 0 -1.3333 -60.022 567.61)"><g clip-path="url(#clipPath23)"><g transform="translate(494.32 243.09)"><path d="m0 0c9.189-0.767 14.806-1.024 16.845-1.024 16.588 0 24.248 5.617 24.248 20.16v119.95h34.449v-123.53c0-31.901-18.374-47.979-51.294-47.979-7.911 0-16.079 1.023-24.248 3.062z"/></g><g transform="translate(688.55 353.34)"><path d="m0 0c-31.139 0-54.108-22.971-54.108-55.383 0-32.409 22.969-55.378 54.108-55.378 30.876 0 54.101 22.969 54.101 55.378 0 31.904-23.225 55.383-54.101 55.383m-0.258 31.9c48.492 1.024 90.605-39.045 89.839-87.283 0.766-48.234-41.347-88.3-89.839-87.283-48.488-1.017-90.09 39.049-89.323 87.283-0.767 48.238 40.835 88.307 89.323 87.283"/></g><g transform="translate(841.68 303.58)"><path d="m0 0h28.836c16.079 0 25.521 9.696 25.521 24.244 0 14.297-9.951 23.99-25.521 23.99h-28.836zm68.905-89.836-43.64 59.464h-25.265v-59.464h-34.457v168.44h63.293c35.219 0 60.741-21.949 60.741-54.362 0-21.438-11.23-38.787-29.607-47.98l47.727-66.1z"/></g><g transform="translate(1025.5 244.88)"><path d="m0 0c33.94 0 56.656 21.184 56.656 53.596 0 32.667-22.209 52.572-56.656 52.572h-20.418v-106.17zm-54.875 137.31h55.128c53.339 0.512 92.641-33.944 91.876-83.711 0.765-48.746-38.537-85.496-91.876-84.732h-55.128z"/></g><g transform="translate(1207.7 320.94)"><path d="m0 0-22.459-56.915h44.916zm34.456-85.245h-68.904l-9.448-21.949h-37.004l75.287 171.5h11.485l75.031-171.5h-37.004z"/></g><g transform="translate(1455 382.18)"><path d="m0 0v-171.5h-11.483l-97.492 104.13v-101.07h-34.45v171.5h11.228l97.747-103.62v100.56z"/></g><g transform="translate(511.4 141.7)"><path d="m0 0c5.361 0 8.369 3.08 8.369 7.723 0 4.649-3.008 7.793-8.369 7.793h-9.503v-15.516zm-17.082 22.237h17.225c9.51 0 16.014-5.934 16.014-14.441 0-8.436-6.504-14.511-16.014-14.511h-9.646v-18.229h-7.579z"/></g><g transform="translate(549.29 163.94)"><path d="m0 0h7.578v-18.805h23.732v18.805h7.578v-47.182h-7.578v21.588h-23.732v-21.588h-7.578z"/></g><g transform="translate(631.14 150.64)"><path d="m0 0-7.936-19.515h15.8zm10.578-26.02h-21.226l-3.362-7.863h-8.079l20.805 47.965h2.57l20.803-47.965h-8.147z"/></g><g transform="translate(681.61 141.7)"><path d="m0 0h9.507c5.22 0 8.361 3.146 8.361 7.723 0 4.649-3.141 7.793-8.361 7.793h-9.507zm22.085-24.944-13.437 18.229h-8.648v-18.229h-7.578v47.181h17.228c9.507 0 16.011-5.934 16.011-14.441 0-6.22-3.432-11.081-9.077-13.297l14.153-19.443z"/></g><g transform="translate(777.25 164.72)"><path d="m0 0v-47.965h-7.578v29.591l-13.509-17.726h-2.57l-13.584 17.799v-29.664h-7.577v47.965h2.645l19.802-26.377 19.798 26.377z"/></g><g transform="translate(820.14 150.64)"><path d="m0 0-7.937-19.515h15.797zm10.576-26.02h-21.229l-3.358-7.863h-8.079l20.801 47.965h2.578l20.797-47.965h-8.148z"/></g><g transform="translate(914.71 164.72)"><path d="m0 0c8.647 0 16.157-4.219 20.231-10.864l-5.72-4.221c-3.358 5.218-8.218 8.151-14.44 8.151-9.65 0-17.01-7.434-17.01-17.444 0-10.004 7.36-17.44 17.01-17.44 6.222 0 11.082 2.933 14.44 8.148l5.72-4.216c-4.002-6.649-11.441-10.863-20.231-10.863-13.438-0.215-25.09 10.863-24.803 24.371-0.287 13.514 11.365 24.592 24.803 24.378"/></g><g transform="translate(978.91 157.79)"><path d="m0 0c-9.793 0-16.942-7.435-16.942-17.367 0-10.081 7.149-17.518 16.942-17.518 9.65 0 16.943 7.437 16.943 17.518 0 9.857-7.293 17.367-16.943 17.367m-0.071 6.934c13.365 0.213 25.089-10.865 24.806-24.378 0.283-13.508-11.441-24.586-24.806-24.371-13.51-0.215-25.021 10.863-24.735 24.371-0.214 13.513 11.293 24.591 24.735 24.378"/></g><g transform="translate(1070.8 164.72)"><path d="m0 0v-47.965h-7.578v29.591l-13.508-17.726h-2.575l-13.584 17.799v-29.664h-7.574v47.965h2.644l19.8-26.377 19.803 26.377z"/></g><g transform="translate(1113.1 141.7)"><path d="m0 0c5.363 0 8.363 3.08 8.363 7.723 0 4.649-3 7.793-8.363 7.793h-9.506v-15.516zm-17.086 22.237h17.23c9.506 0 16.006-5.934 16.006-14.441 0-8.436-6.5-14.511-16.006-14.511h-9.65v-18.229h-7.58z"/></g><g transform="translate(1151 163.94)"><path d="m0 0h7.577v-40.391h21.59v-6.791h-29.167z"/></g><path d="m1201.1 163.94h7.574v-47.182h-7.574z"/><g transform="translate(1251.5 150.64)"><path d="m0 0-7.939-19.515h15.799zm10.574-26.02h-21.225l-3.359-7.863h-8.083l20.805 47.965h2.576l20.798-47.965h-8.148z"/></g><g transform="translate(1333.3 163.94)"><path d="m0 0v-47.966h-2.575l-28.737 32.738v-31.954h-7.575v47.965h2.642l28.666-32.598v31.815z"/></g><g transform="translate(1380.5 164.72)"><path d="m0 0c8.648 0 16.158-4.219 20.229-10.864l-5.718-4.221c-3.357 5.218-8.217 8.151-14.44 8.151-9.651 0-17.009-7.434-17.009-17.444 0-10.004 7.358-17.44 17.009-17.44 6.223 0 11.083 2.933 14.44 8.148l5.718-4.216c-4.006-6.649-11.438-10.863-20.229-10.863-13.444-0.215-25.092 10.863-24.806 24.371-0.286 13.514 11.362 24.592 24.806 24.378"/></g><g transform="translate(1423.1 163.94)"><path d="m0 0h31.027v-6.795h-23.453v-12.079h17.661v-6.575h-17.661v-14.942h24.305v-6.791h-31.879z"/></g><path d="m445.52 115.96h-12.458v269.3h12.458z"/><g transform="translate(45.022 220.39)"><path d="M 0,0 C -0.316,-18.252 14.46,-33.688 32.612,-34.066 51.423,-34.46 66.644,-19.484 66.897,-0.334 67.134,17.385 51.782,32.66 33.604,32.792 15.514,32.925 0.315,18.094 0,0"/></g><g transform="translate(312.5 355.74)"><path d="m0 0c-0.311-18.85 13.931-33.598 32.767-33.92 18.42-0.315 33.533 14.268 33.834 32.652 0.304 18.557-14.354 33.694-32.896 33.97-18.527 0.272-33.396-14.154-33.705-32.702"/></g><g transform="translate(301.54 140.91)"><path d="m0 0c-18.509 0.25-33.465-14.511-33.641-33.189-0.164-18.002 14.802-33.215 32.882-33.432 18.614-0.222 33.626 14.361 33.935 32.969 0.303 18.473-14.416 33.402-33.176 33.652"/></g><g transform="translate(199.48 182.04)"><path d="m0 0-51.316-0.688s16.953 4.964 19.087 20.698c0.818 6.048-0.362 18.337 0 24.432 1.302 21.994-26.647 28.179-26.647 28.179l67.81-3.036s-22.221-4.066-23.596-25.147c-0.394-6.091-0.1-18.326 0-24.428 0.229-13.482 14.662-20.01 14.662-20.01"/></g><g transform="translate(294.25 232.13)"><path d="m0 0 25.458-45.817s-12.686 10.281-27.384 4.278c-5.651-2.309-43.483-27.086-48.949-29.815-19.712-9.839-12.789-33.953-12.789-33.953l-29.539 57.089s14.612-17.232 33.569-7.908c5.477 2.692 42.868 25.54 48.044 28.772 12.507 7.807 11.59 27.354 11.59 27.354"/></g><g transform="translate(169.83 286.29)"><path d="m0 0c-4.656-0.083-9.475 0.437-14.303 1.554l-0.301 17.274c5.419-0.354 8.726-0.451 9.926-0.432 9.761 0.171 14.214 3.557 14.064 12.119l-1.224 70.589 20.278 0.354 1.26-72.697c0.325-18.775-10.327-28.425-29.7-28.761m8.28 139.43c-50.082 0-90.68-40.599-90.68-90.68s40.598-90.681 90.68-90.681c50.08 0 90.679 40.6 90.679 90.681s-40.599 90.68-90.679 90.68"/></g><g transform="translate(182.85 126.67)"><path d="m0 0-8.781-0.15 0.315-18.1-10.484-0.186-0.892 51.271 19.265 0.333c10.721 0.186 18.603-6.357 18.775-16.224 0.168-9.785-7.481-16.757-18.198-16.944m-4.739 63.841c-31.189 0-56.471-25.283-56.471-56.471s25.282-56.471 56.471-56.471c31.187 0 56.47 25.283 56.47 56.471s-25.283 56.471-56.47 56.471m4.323-39.915-8.776-0.151 0.254-14.762 8.777 0.153c4.893 0.083 7.713 3.166 7.639 7.593-0.076 4.35-3.154 7.249-7.894 7.167"/></g><g transform="translate(351.45 205.57)"><path d="m0 0c-14.984-0.569-27.781 11.411-27.727 26.094-0.487 14.676 11.963 27.09 26.882 27.04 9.712 0.168 18.106-4.424 22.827-12.35l-7.826-5.727c-3.75 5.685-8.694 8.473-14.829 8.37-9.557-0.169-16.424-7.435-16.251-17.226 0.168-9.786 7.28-16.651 16.834-16.487 6.14 0.104 10.979 3.064 14.529 8.877l8.022-5.454c-4.288-8.083-12.596-12.966-22.461-13.137m24.823 77.21c-27.246 15.17-61.635 5.38-76.801-21.871-15.174-27.251-5.384-61.64 21.867-76.81 27.255-15.17 61.639-5.38 76.809 21.871 15.17 27.254 5.38 61.641-21.875 76.81"/></g><g transform="translate(319.71 280.16)"><path d="m0 0-24.359-45.167s3.912 17.229-8.799 26.739c-4.885 3.663-16.197 8.606-21.351 11.887-18.578 11.839-37.578-9.57-37.578-9.57l35.633 57.769s-7.254-21.394 10.497-32.849c5.129-3.314 15.96-9.006 21.344-11.884 11.891-6.361 24.613 3.075 24.613 3.075"/></g></g></g></svg>
